<svg xmlns="http://www.w3.org/2000/svg" width="800" height="450" viewBox="0 0 800 450" role="img" aria-label="3D Print MSP">
  <defs>
    <linearGradient id="bg" x1="0" y1="0" x2="1" y2="1">
      <stop offset="0" stop-color="#141317"/><stop offset="1" stop-color="#0a090c"/>
    </linearGradient>
    <radialGradient id="glow" cx="0.5" cy="0.48" r="0.62">
      <stop offset="0" stop-color="#cd8787" stop-opacity="0.28"/><stop offset="1" stop-color="#cd8787" stop-opacity="0"/>
    </radialGradient>
  </defs>
  <rect width="800" height="450" fill="url(#bg)"/>
  <rect width="800" height="450" fill="url(#glow)"/>
  <g opacity="0.06" stroke="#ffffff" stroke-width="1">
    <line x1="0" y1="0" x2="-450" y2="450"/><line x1="46" y1="0" x2="-404" y2="450"/><line x1="92" y1="0" x2="-358" y2="450"/><line x1="138" y1="0" x2="-312" y2="450"/><line x1="184" y1="0" x2="-266" y2="450"/><line x1="230" y1="0" x2="-220" y2="450"/><line x1="276" y1="0" x2="-174" y2="450"/><line x1="322" y1="0" x2="-128" y2="450"/><line x1="368" y1="0" x2="-82" y2="450"/><line x1="414" y1="0" x2="-36" y2="450"/><line x1="460" y1="0" x2="10" y2="450"/><line x1="506" y1="0" x2="56" y2="450"/><line x1="552" y1="0" x2="102" y2="450"/><line x1="598" y1="0" x2="148" y2="450"/><line x1="644" y1="0" x2="194" y2="450"/><line x1="690" y1="0" x2="240" y2="450"/><line x1="736" y1="0" x2="286" y2="450"/><line x1="782" y1="0" x2="332" y2="450"/><line x1="828" y1="0" x2="378" y2="450"/><line x1="874" y1="0" x2="424" y2="450"/><line x1="920" y1="0" x2="470" y2="450"/><line x1="966" y1="0" x2="516" y2="450"/><line x1="1012" y1="0" x2="562" y2="450"/><line x1="1058" y1="0" x2="608" y2="450"/><line x1="1104" y1="0" x2="654" y2="450"/><line x1="1150" y1="0" x2="700" y2="450"/><line x1="1196" y1="0" x2="746" y2="450"/><line x1="1242" y1="0" x2="792" y2="450"/><line x1="1288" y1="0" x2="838" y2="450"/>
  </g>
  <g transform="translate(400,225) scale(1.5) translate(-400,-192)">
  <g fill="none" stroke="#cd8787" stroke-width="3.5" stroke-linecap="round" stroke-linejoin="round">
    <path d="M386 148 h48 l-10 26 h-28 z"/>
    <line x1="410" y1="174" x2="410" y2="188" stroke-width="4"/>
    <ellipse cx="410" cy="232" rx="46" ry="11"/>
    <path d="M378 232 v-14 h64 v14" opacity="0.8"/>
    <path d="M384 218 v-12 h52 v12" opacity="0.6"/>
    <path d="M390 206 v-11 h40 v11" opacity="0.4"/>
  </g></g>
</svg>
