<svg xmlns="http://www.w3.org/2000/svg" width="800" height="450" viewBox="0 0 800 450" role="img" aria-label="HabitFarmer">
  <defs>
    <linearGradient id="bg" x1="0" y1="0" x2="1" y2="1">
      <stop offset="0" stop-color="#141317"/><stop offset="1" stop-color="#0a090c"/>
    </linearGradient>
    <radialGradient id="glow" cx="0.66" cy="0.28" r="0.75">
      <stop offset="0" stop-color="#ff6a00" stop-opacity="0.30"/><stop offset="1" stop-color="#ff6a00" stop-opacity="0"/>
    </radialGradient>
  </defs>
  <rect width="800" height="450" fill="url(#bg)"/>
  <rect width="800" height="450" fill="url(#glow)"/>
  <g opacity="0.06" stroke="#ffffff" stroke-width="1">
    <line x1="0" y1="0" x2="-450" y2="450"/><line x1="46" y1="0" x2="-404" y2="450"/><line x1="92" y1="0" x2="-358" y2="450"/><line x1="138" y1="0" x2="-312" y2="450"/><line x1="184" y1="0" x2="-266" y2="450"/><line x1="230" y1="0" x2="-220" y2="450"/><line x1="276" y1="0" x2="-174" y2="450"/><line x1="322" y1="0" x2="-128" y2="450"/><line x1="368" y1="0" x2="-82" y2="450"/><line x1="414" y1="0" x2="-36" y2="450"/><line x1="460" y1="0" x2="10" y2="450"/><line x1="506" y1="0" x2="56" y2="450"/><line x1="552" y1="0" x2="102" y2="450"/><line x1="598" y1="0" x2="148" y2="450"/><line x1="644" y1="0" x2="194" y2="450"/><line x1="690" y1="0" x2="240" y2="450"/><line x1="736" y1="0" x2="286" y2="450"/><line x1="782" y1="0" x2="332" y2="450"/><line x1="828" y1="0" x2="378" y2="450"/><line x1="874" y1="0" x2="424" y2="450"/><line x1="920" y1="0" x2="470" y2="450"/><line x1="966" y1="0" x2="516" y2="450"/><line x1="1012" y1="0" x2="562" y2="450"/><line x1="1058" y1="0" x2="608" y2="450"/><line x1="1104" y1="0" x2="654" y2="450"/><line x1="1150" y1="0" x2="700" y2="450"/><line x1="1196" y1="0" x2="746" y2="450"/><line x1="1242" y1="0" x2="792" y2="450"/><line x1="1288" y1="0" x2="838" y2="450"/>
  </g>
  <text x="48" y="70" font-family="'SF Mono',ui-monospace,Menlo,monospace" font-size="20" fill="#ff6a00" opacity="0.85">24</text>
  <g transform="translate(0,-6)">
  <g fill="none" stroke="#ff6a00" stroke-width="3.5" stroke-linecap="round" stroke-linejoin="round">
    <path d="M380 214 L440 214 L432 246 L388 246 Z" fill="#16130f"/>
    <line x1="410" y1="214" x2="410" y2="164"/>
    <path d="M410 186 C384 180 372 158 396 152 C414 148 414 172 410 186 Z" fill="#ff6a00" stroke="#ff6a00"/>
    <path d="M410 198 C436 192 448 170 424 164 C406 160 406 184 410 198 Z" fill="none"/>
  </g></g>
  <text x="48" y="392" font-family="Georgia,'Times New Roman',serif" font-weight="700" font-size="30" fill="#f4f3f1">HabitFarmer</text>
  <rect x="48" y="406" width="98" height="26" rx="13" fill="#ff6a00" fill-opacity="0.12" stroke="#ff6a00" stroke-opacity="0.35"/>
  <text x="60" y="423" font-family="ui-sans-serif,system-ui,sans-serif" font-weight="600" font-size="12" letter-spacing="1.5" fill="#ff9248">MOBILE APP</text>
</svg>
